<svg width="128" height="128" viewBox="0 0 128 128" fill="none" xmlns="http://www.w3.org/2000/svg">
  <defs>
    <linearGradient id="bg" x1="18" y1="14" x2="112" y2="116" gradientUnits="userSpaceOnUse">
      <stop stop-color="#0E7490"/>
      <stop offset="1" stop-color="#0F766E"/>
    </linearGradient>
    <linearGradient id="shine" x1="34" y1="24" x2="90" y2="74" gradientUnits="userSpaceOnUse">
      <stop stop-color="white" stop-opacity="0.35"/>
      <stop offset="1" stop-color="white" stop-opacity="0"/>
    </linearGradient>
  </defs>
  <rect x="10" y="10" width="108" height="108" rx="28" fill="url(#bg)"/>
  <rect x="10" y="10" width="108" height="108" rx="28" fill="url(#shine)"/>
  <rect x="34" y="26" width="46" height="58" rx="10" fill="white" fill-opacity="0.78"/>
  <rect x="42" y="34" width="46" height="58" rx="10" fill="white" fill-opacity="0.9"/>
  <rect x="50" y="42" width="46" height="58" rx="10" fill="white"/>
  <rect x="58" y="53" width="18" height="4" rx="2" fill="#9FD6DA"/>
  <rect x="58" y="62" width="26" height="4" rx="2" fill="#B8E4E0"/>
  <rect x="58" y="71" width="20" height="4" rx="2" fill="#CDEEEA"/>
  <path d="M86 86H102V92H96V104H92V92H86V86Z" fill="#FDBA74"/>
</svg>
